<svg width="78" height="78" viewBox="0 0 78 78" fill="none" xmlns="http://www.w3.org/2000/svg">
<path d="M39 78C49.3434 78 59.2632 73.8911 66.5772 66.5772C73.8911 59.2632 78 49.3434 78 39C78 28.6566 73.8911 18.7368 66.5772 11.4228C59.2632 4.10892 49.3434 0 39 0C28.6566 0 18.7368 4.10892 11.4228 11.4228C4.10892 18.7368 0 28.6566 0 39C0 49.3434 4.10892 59.2632 11.4228 66.5772C18.7368 73.8911 28.6566 78 39 78ZM56.2148 31.8398L36.7148 51.3398C35.2828 52.7719 32.9672 52.7719 31.5504 51.3398L21.8004 41.5898C20.3684 40.1578 20.3684 37.8422 21.8004 36.4254C23.2324 35.0086 25.548 34.9934 26.9648 36.4254L34.125 43.5855L51.0352 26.6602C52.4672 25.2281 54.7828 25.2281 56.1996 26.6602C57.6164 28.0922 57.6316 30.4078 56.1996 31.8246L56.2148 31.8398Z" fill="#A662FF"/>
</svg>
