<svg width="20" height="23" viewBox="0 0 20 23" fill="none" xmlns="http://www.w3.org/2000/svg">
<path d="M9.28572 0.32959H14.8259C15.3929 0.32959 15.9375 0.54873 16.3393 0.935449L19.3705 3.85303C19.7723 4.23975 20 4.76397 20 5.30967V14.7671C20 15.9058 19.0402 16.8296 17.8571 16.8296H9.28572C8.10268 16.8296 7.14286 15.9058 7.14286 14.7671V2.39209C7.14286 1.25342 8.10268 0.32959 9.28572 0.32959ZM2.14286 5.82959H5.71429V8.57959H2.85714V19.5796H11.4286V18.2046H14.2857V20.2671C14.2857 21.4058 13.3259 22.3296 12.1429 22.3296H2.14286C0.959821 22.3296 0 21.4058 0 20.2671V7.89209C0 6.75342 0.959821 5.82959 2.14286 5.82959Z" fill="#672BB6"/>
</svg>
