<svg xmlns="http://www.w3.org/2000/svg" xml:space="preserve" xmlns:xlink="http://www.w3.org/1999/xlink" style="max-width: 100%;height: auto;" width="999" height="999" viewBox="0 0 999 999">
<rect width="999" height="999" fill="#ffffff" x="0" y="0"  />
<g  fill="#672bb6">
<g transform="translate(270,54) scale(4.635)"><rect width="6" height="6"/></g>
<g transform="translate(378,54) scale(4.635)"><rect width="6" height="6"/></g>
<g transform="translate(432,54) scale(4.635)"><rect width="6" height="6"/></g>
<g transform="translate(459,54) scale(4.635)"><rect width="6" height="6"/></g>
<g transform="translate(540,54) scale(4.635)"><rect width="6" height="6"/></g>
<g transform="translate(567,54) scale(4.635)"><rect width="6" height="6"/></g>
<g transform="translate(594,54) scale(4.635)"><rect width="6" height="6"/></g>
<g transform="translate(675,54) scale(4.635)"><rect width="6" height="6"/></g>
<g transform="translate(270,81) scale(4.635)"><rect width="6" height="6"/></g>
<g transform="translate(594,81) scale(4.635)"><rect width="6" height="6"/></g>
<g transform="translate(621,81) scale(4.635)"><rect width="6" height="6"/></g>
<g transform="translate(648,81) scale(4.635)"><rect width="6" height="6"/></g>
<g transform="translate(270,108) scale(4.635)"><rect width="6" height="6"/></g>
<g transform="translate(297,108) scale(4.635)"><rect width="6" height="6"/></g>
<g transform="translate(459,108) scale(4.635)"><rect width="6" height="6"/></g>
<g transform="translate(486,108) scale(4.635)"><rect width="6" height="6"/></g>
<g transform="translate(540,108) scale(4.635)"><rect width="6" height="6"/></g>
<g transform="translate(567,108) scale(4.635)"><rect width="6" height="6"/></g>
<g transform="translate(621,108) scale(4.635)"><rect width="6" height="6"/></g>
<g transform="translate(297,135) scale(4.635)"><rect width="6" height="6"/></g>
<g transform="translate(324,135) scale(4.635)"><rect width="6" height="6"/></g>
<g transform="translate(378,135) scale(4.635)"><rect width="6" height="6"/></g>
<g transform="translate(405,135) scale(4.635)"><rect width="6" height="6"/></g>
<g transform="translate(432,135) scale(4.635)"><rect width="6" height="6"/></g>
<g transform="translate(459,135) scale(4.635)"><rect width="6" height="6"/></g>
<g transform="translate(513,135) scale(4.635)"><rect width="6" height="6"/></g>
<g transform="translate(567,135) scale(4.635)"><rect width="6" height="6"/></g>
<g transform="translate(648,135) scale(4.635)"><rect width="6" height="6"/></g>
<g transform="translate(702,135) scale(4.635)"><rect width="6" height="6"/></g>
<g transform="translate(324,162) scale(4.635)"><rect width="6" height="6"/></g>
<g transform="translate(432,162) scale(4.635)"><rect width="6" height="6"/></g>
<g transform="translate(621,162) scale(4.635)"><rect width="6" height="6"/></g>
<g transform="translate(702,162) scale(4.635)"><rect width="6" height="6"/></g>
<g transform="translate(270,189) scale(4.635)"><rect width="6" height="6"/></g>
<g transform="translate(297,189) scale(4.635)"><rect width="6" height="6"/></g>
<g transform="translate(324,189) scale(4.635)"><rect width="6" height="6"/></g>
<g transform="translate(378,189) scale(4.635)"><rect width="6" height="6"/></g>
<g transform="translate(405,189) scale(4.635)"><rect width="6" height="6"/></g>
<g transform="translate(459,189) scale(4.635)"><rect width="6" height="6"/></g>
<g transform="translate(513,189) scale(4.635)"><rect width="6" height="6"/></g>
<g transform="translate(594,189) scale(4.635)"><rect width="6" height="6"/></g>
<g transform="translate(621,189) scale(4.635)"><rect width="6" height="6"/></g>
<g transform="translate(702,189) scale(4.635)"><rect width="6" height="6"/></g>
<g transform="translate(270,216) scale(4.635)"><rect width="6" height="6"/></g>
<g transform="translate(324,216) scale(4.635)"><rect width="6" height="6"/></g>
<g transform="translate(378,216) scale(4.635)"><rect width="6" height="6"/></g>
<g transform="translate(432,216) scale(4.635)"><rect width="6" height="6"/></g>
<g transform="translate(486,216) scale(4.635)"><rect width="6" height="6"/></g>
<g transform="translate(540,216) scale(4.635)"><rect width="6" height="6"/></g>
<g transform="translate(594,216) scale(4.635)"><rect width="6" height="6"/></g>
<g transform="translate(648,216) scale(4.635)"><rect width="6" height="6"/></g>
<g transform="translate(702,216) scale(4.635)"><rect width="6" height="6"/></g>
<g transform="translate(270,243) scale(4.635)"><rect width="6" height="6"/></g>
<g transform="translate(297,243) scale(4.635)"><rect width="6" height="6"/></g>
<g transform="translate(432,243) scale(4.635)"><rect width="6" height="6"/></g>
<g transform="translate(459,243) scale(4.635)"><rect width="6" height="6"/></g>
<g transform="translate(513,243) scale(4.635)"><rect width="6" height="6"/></g>
<g transform="translate(621,243) scale(4.635)"><rect width="6" height="6"/></g>
<g transform="translate(648,243) scale(4.635)"><rect width="6" height="6"/></g>
<g transform="translate(675,243) scale(4.635)"><rect width="6" height="6"/></g>
<g transform="translate(108,270) scale(4.635)"><rect width="6" height="6"/></g>
<g transform="translate(135,270) scale(4.635)"><rect width="6" height="6"/></g>
<g transform="translate(162,270) scale(4.635)"><rect width="6" height="6"/></g>
<g transform="translate(216,270) scale(4.635)"><rect width="6" height="6"/></g>
<g transform="translate(270,270) scale(4.635)"><rect width="6" height="6"/></g>
<g transform="translate(297,270) scale(4.635)"><rect width="6" height="6"/></g>
<g transform="translate(351,270) scale(4.635)"><rect width="6" height="6"/></g>
<g transform="translate(378,270) scale(4.635)"><rect width="6" height="6"/></g>
<g transform="translate(459,270) scale(4.635)"><rect width="6" height="6"/></g>
<g transform="translate(486,270) scale(4.635)"><rect width="6" height="6"/></g>
<g transform="translate(513,270) scale(4.635)"><rect width="6" height="6"/></g>
<g transform="translate(648,270) scale(4.635)"><rect width="6" height="6"/></g>
<g transform="translate(675,270) scale(4.635)"><rect width="6" height="6"/></g>
<g transform="translate(702,270) scale(4.635)"><rect width="6" height="6"/></g>
<g transform="translate(729,270) scale(4.635)"><rect width="6" height="6"/></g>
<g transform="translate(756,270) scale(4.635)"><rect width="6" height="6"/></g>
<g transform="translate(783,270) scale(4.635)"><rect width="6" height="6"/></g>
<g transform="translate(864,270) scale(4.635)"><rect width="6" height="6"/></g>
<g transform="translate(891,270) scale(4.635)"><rect width="6" height="6"/></g>
<g transform="translate(918,270) scale(4.635)"><rect width="6" height="6"/></g>
<g transform="translate(54,297) scale(4.635)"><rect width="6" height="6"/></g>
<g transform="translate(135,297) scale(4.635)"><rect width="6" height="6"/></g>
<g transform="translate(162,297) scale(4.635)"><rect width="6" height="6"/></g>
<g transform="translate(324,297) scale(4.635)"><rect width="6" height="6"/></g>
<g transform="translate(351,297) scale(4.635)"><rect width="6" height="6"/></g>
<g transform="translate(378,297) scale(4.635)"><rect width="6" height="6"/></g>
<g transform="translate(432,297) scale(4.635)"><rect width="6" height="6"/></g>
<g transform="translate(459,297) scale(4.635)"><rect width="6" height="6"/></g>
<g transform="translate(594,297) scale(4.635)"><rect width="6" height="6"/></g>
<g transform="translate(675,297) scale(4.635)"><rect width="6" height="6"/></g>
<g transform="translate(756,297) scale(4.635)"><rect width="6" height="6"/></g>
<g transform="translate(837,297) scale(4.635)"><rect width="6" height="6"/></g>
<g transform="translate(918,297) scale(4.635)"><rect width="6" height="6"/></g>
<g transform="translate(54,324) scale(4.635)"><rect width="6" height="6"/></g>
<g transform="translate(81,324) scale(4.635)"><rect width="6" height="6"/></g>
<g transform="translate(135,324) scale(4.635)"><rect width="6" height="6"/></g>
<g transform="translate(162,324) scale(4.635)"><rect width="6" height="6"/></g>
<g transform="translate(216,324) scale(4.635)"><rect width="6" height="6"/></g>
<g transform="translate(270,324) scale(4.635)"><rect width="6" height="6"/></g>
<g transform="translate(324,324) scale(4.635)"><rect width="6" height="6"/></g>
<g transform="translate(378,324) scale(4.635)"><rect width="6" height="6"/></g>
<g transform="translate(405,324) scale(4.635)"><rect width="6" height="6"/></g>
<g transform="translate(432,324) scale(4.635)"><rect width="6" height="6"/></g>
<g transform="translate(459,324) scale(4.635)"><rect width="6" height="6"/></g>
<g transform="translate(486,324) scale(4.635)"><rect width="6" height="6"/></g>
<g transform="translate(513,324) scale(4.635)"><rect width="6" height="6"/></g>
<g transform="translate(540,324) scale(4.635)"><rect width="6" height="6"/></g>
<g transform="translate(594,324) scale(4.635)"><rect width="6" height="6"/></g>
<g transform="translate(648,324) scale(4.635)"><rect width="6" height="6"/></g>
<g transform="translate(729,324) scale(4.635)"><rect width="6" height="6"/></g>
<g transform="translate(756,324) scale(4.635)"><rect width="6" height="6"/></g>
<g transform="translate(810,324) scale(4.635)"><rect width="6" height="6"/></g>
<g transform="translate(108,351) scale(4.635)"><rect width="6" height="6"/></g>
<g transform="translate(135,351) scale(4.635)"><rect width="6" height="6"/></g>
<g transform="translate(162,351) scale(4.635)"><rect width="6" height="6"/></g>
<g transform="translate(189,351) scale(4.635)"><rect width="6" height="6"/></g>
<g transform="translate(243,351) scale(4.635)"><rect width="6" height="6"/></g>
<g transform="translate(297,351) scale(4.635)"><rect width="6" height="6"/></g>
<g transform="translate(351,351) scale(4.635)"><rect width="6" height="6"/></g>
<g transform="translate(405,351) scale(4.635)"><rect width="6" height="6"/></g>
<g transform="translate(432,351) scale(4.635)"><rect width="6" height="6"/></g>
<g transform="translate(459,351) scale(4.635)"><rect width="6" height="6"/></g>
<g transform="translate(540,351) scale(4.635)"><rect width="6" height="6"/></g>
<g transform="translate(675,351) scale(4.635)"><rect width="6" height="6"/></g>
<g transform="translate(702,351) scale(4.635)"><rect width="6" height="6"/></g>
<g transform="translate(729,351) scale(4.635)"><rect width="6" height="6"/></g>
<g transform="translate(756,351) scale(4.635)"><rect width="6" height="6"/></g>
<g transform="translate(837,351) scale(4.635)"><rect width="6" height="6"/></g>
<g transform="translate(864,351) scale(4.635)"><rect width="6" height="6"/></g>
<g transform="translate(891,351) scale(4.635)"><rect width="6" height="6"/></g>
<g transform="translate(918,351) scale(4.635)"><rect width="6" height="6"/></g>
<g transform="translate(216,378) scale(4.635)"><rect width="6" height="6"/></g>
<g transform="translate(324,378) scale(4.635)"><rect width="6" height="6"/></g>
<g transform="translate(432,378) scale(4.635)"><rect width="6" height="6"/></g>
<g transform="translate(513,378) scale(4.635)"><rect width="6" height="6"/></g>
<g transform="translate(621,378) scale(4.635)"><rect width="6" height="6"/></g>
<g transform="translate(648,378) scale(4.635)"><rect width="6" height="6"/></g>
<g transform="translate(702,378) scale(4.635)"><rect width="6" height="6"/></g>
<g transform="translate(729,378) scale(4.635)"><rect width="6" height="6"/></g>
<g transform="translate(783,378) scale(4.635)"><rect width="6" height="6"/></g>
<g transform="translate(810,378) scale(4.635)"><rect width="6" height="6"/></g>
<g transform="translate(837,378) scale(4.635)"><rect width="6" height="6"/></g>
<g transform="translate(891,378) scale(4.635)"><rect width="6" height="6"/></g>
<g transform="translate(918,378) scale(4.635)"><rect width="6" height="6"/></g>
<g transform="translate(54,405) scale(4.635)"><rect width="6" height="6"/></g>
<g transform="translate(108,405) scale(4.635)"><rect width="6" height="6"/></g>
<g transform="translate(135,405) scale(4.635)"><rect width="6" height="6"/></g>
<g transform="translate(162,405) scale(4.635)"><rect width="6" height="6"/></g>
<g transform="translate(270,405) scale(4.635)"><rect width="6" height="6"/></g>
<g transform="translate(675,405) scale(4.635)"><rect width="6" height="6"/></g>
<g transform="translate(729,405) scale(4.635)"><rect width="6" height="6"/></g>
<g transform="translate(756,405) scale(4.635)"><rect width="6" height="6"/></g>
<g transform="translate(891,405) scale(4.635)"><rect width="6" height="6"/></g>
<g transform="translate(54,432) scale(4.635)"><rect width="6" height="6"/></g>
<g transform="translate(81,432) scale(4.635)"><rect width="6" height="6"/></g>
<g transform="translate(108,432) scale(4.635)"><rect width="6" height="6"/></g>
<g transform="translate(189,432) scale(4.635)"><rect width="6" height="6"/></g>
<g transform="translate(216,432) scale(4.635)"><rect width="6" height="6"/></g>
<g transform="translate(243,432) scale(4.635)"><rect width="6" height="6"/></g>
<g transform="translate(297,432) scale(4.635)"><rect width="6" height="6"/></g>
<g transform="translate(351,432) scale(4.635)"><rect width="6" height="6"/></g>
<g transform="translate(378,432) scale(4.635)"><rect width="6" height="6"/></g>
<g transform="translate(459,432) scale(4.635)"><rect width="6" height="6"/></g>
<g transform="translate(486,432) scale(4.635)"><rect width="6" height="6"/></g>
<g transform="translate(513,432) scale(4.635)"><rect width="6" height="6"/></g>
<g transform="translate(540,432) scale(4.635)"><rect width="6" height="6"/></g>
<g transform="translate(567,432) scale(4.635)"><rect width="6" height="6"/></g>
<g transform="translate(594,432) scale(4.635)"><rect width="6" height="6"/></g>
<g transform="translate(648,432) scale(4.635)"><rect width="6" height="6"/></g>
<g transform="translate(891,432) scale(4.635)"><rect width="6" height="6"/></g>
<g transform="translate(54,459) scale(4.635)"><rect width="6" height="6"/></g>
<g transform="translate(189,459) scale(4.635)"><rect width="6" height="6"/></g>
<g transform="translate(243,459) scale(4.635)"><rect width="6" height="6"/></g>
<g transform="translate(351,459) scale(4.635)"><rect width="6" height="6"/></g>
<g transform="translate(378,459) scale(4.635)"><rect width="6" height="6"/></g>
<g transform="translate(486,459) scale(4.635)"><rect width="6" height="6"/></g>
<g transform="translate(513,459) scale(4.635)"><rect width="6" height="6"/></g>
<g transform="translate(567,459) scale(4.635)"><rect width="6" height="6"/></g>
<g transform="translate(594,459) scale(4.635)"><rect width="6" height="6"/></g>
<g transform="translate(621,459) scale(4.635)"><rect width="6" height="6"/></g>
<g transform="translate(702,459) scale(4.635)"><rect width="6" height="6"/></g>
<g transform="translate(783,459) scale(4.635)"><rect width="6" height="6"/></g>
<g transform="translate(810,459) scale(4.635)"><rect width="6" height="6"/></g>
<g transform="translate(837,459) scale(4.635)"><rect width="6" height="6"/></g>
<g transform="translate(864,459) scale(4.635)"><rect width="6" height="6"/></g>
<g transform="translate(81,486) scale(4.635)"><rect width="6" height="6"/></g>
<g transform="translate(216,486) scale(4.635)"><rect width="6" height="6"/></g>
<g transform="translate(351,486) scale(4.635)"><rect width="6" height="6"/></g>
<g transform="translate(405,486) scale(4.635)"><rect width="6" height="6"/></g>
<g transform="translate(432,486) scale(4.635)"><rect width="6" height="6"/></g>
<g transform="translate(459,486) scale(4.635)"><rect width="6" height="6"/></g>
<g transform="translate(486,486) scale(4.635)"><rect width="6" height="6"/></g>
<g transform="translate(540,486) scale(4.635)"><rect width="6" height="6"/></g>
<g transform="translate(648,486) scale(4.635)"><rect width="6" height="6"/></g>
<g transform="translate(702,486) scale(4.635)"><rect width="6" height="6"/></g>
<g transform="translate(729,486) scale(4.635)"><rect width="6" height="6"/></g>
<g transform="translate(783,486) scale(4.635)"><rect width="6" height="6"/></g>
<g transform="translate(810,486) scale(4.635)"><rect width="6" height="6"/></g>
<g transform="translate(81,513) scale(4.635)"><rect width="6" height="6"/></g>
<g transform="translate(135,513) scale(4.635)"><rect width="6" height="6"/></g>
<g transform="translate(162,513) scale(4.635)"><rect width="6" height="6"/></g>
<g transform="translate(189,513) scale(4.635)"><rect width="6" height="6"/></g>
<g transform="translate(432,513) scale(4.635)"><rect width="6" height="6"/></g>
<g transform="translate(567,513) scale(4.635)"><rect width="6" height="6"/></g>
<g transform="translate(648,513) scale(4.635)"><rect width="6" height="6"/></g>
<g transform="translate(675,513) scale(4.635)"><rect width="6" height="6"/></g>
<g transform="translate(756,513) scale(4.635)"><rect width="6" height="6"/></g>
<g transform="translate(783,513) scale(4.635)"><rect width="6" height="6"/></g>
<g transform="translate(864,513) scale(4.635)"><rect width="6" height="6"/></g>
<g transform="translate(918,513) scale(4.635)"><rect width="6" height="6"/></g>
<g transform="translate(54,540) scale(4.635)"><rect width="6" height="6"/></g>
<g transform="translate(135,540) scale(4.635)"><rect width="6" height="6"/></g>
<g transform="translate(216,540) scale(4.635)"><rect width="6" height="6"/></g>
<g transform="translate(297,540) scale(4.635)"><rect width="6" height="6"/></g>
<g transform="translate(324,540) scale(4.635)"><rect width="6" height="6"/></g>
<g transform="translate(351,540) scale(4.635)"><rect width="6" height="6"/></g>
<g transform="translate(540,540) scale(4.635)"><rect width="6" height="6"/></g>
<g transform="translate(594,540) scale(4.635)"><rect width="6" height="6"/></g>
<g transform="translate(621,540) scale(4.635)"><rect width="6" height="6"/></g>
<g transform="translate(648,540) scale(4.635)"><rect width="6" height="6"/></g>
<g transform="translate(864,540) scale(4.635)"><rect width="6" height="6"/></g>
<g transform="translate(918,540) scale(4.635)"><rect width="6" height="6"/></g>
<g transform="translate(108,567) scale(4.635)"><rect width="6" height="6"/></g>
<g transform="translate(162,567) scale(4.635)"><rect width="6" height="6"/></g>
<g transform="translate(189,567) scale(4.635)"><rect width="6" height="6"/></g>
<g transform="translate(432,567) scale(4.635)"><rect width="6" height="6"/></g>
<g transform="translate(540,567) scale(4.635)"><rect width="6" height="6"/></g>
<g transform="translate(621,567) scale(4.635)"><rect width="6" height="6"/></g>
<g transform="translate(648,567) scale(4.635)"><rect width="6" height="6"/></g>
<g transform="translate(729,567) scale(4.635)"><rect width="6" height="6"/></g>
<g transform="translate(756,567) scale(4.635)"><rect width="6" height="6"/></g>
<g transform="translate(837,567) scale(4.635)"><rect width="6" height="6"/></g>
<g transform="translate(864,567) scale(4.635)"><rect width="6" height="6"/></g>
<g transform="translate(891,567) scale(4.635)"><rect width="6" height="6"/></g>
<g transform="translate(918,567) scale(4.635)"><rect width="6" height="6"/></g>
<g transform="translate(216,594) scale(4.635)"><rect width="6" height="6"/></g>
<g transform="translate(270,594) scale(4.635)"><rect width="6" height="6"/></g>
<g transform="translate(297,594) scale(4.635)"><rect width="6" height="6"/></g>
<g transform="translate(324,594) scale(4.635)"><rect width="6" height="6"/></g>
<g transform="translate(378,594) scale(4.635)"><rect width="6" height="6"/></g>
<g transform="translate(432,594) scale(4.635)"><rect width="6" height="6"/></g>
<g transform="translate(459,594) scale(4.635)"><rect width="6" height="6"/></g>
<g transform="translate(540,594) scale(4.635)"><rect width="6" height="6"/></g>
<g transform="translate(648,594) scale(4.635)"><rect width="6" height="6"/></g>
<g transform="translate(675,594) scale(4.635)"><rect width="6" height="6"/></g>
<g transform="translate(702,594) scale(4.635)"><rect width="6" height="6"/></g>
<g transform="translate(729,594) scale(4.635)"><rect width="6" height="6"/></g>
<g transform="translate(783,594) scale(4.635)"><rect width="6" height="6"/></g>
<g transform="translate(810,594) scale(4.635)"><rect width="6" height="6"/></g>
<g transform="translate(54,621) scale(4.635)"><rect width="6" height="6"/></g>
<g transform="translate(81,621) scale(4.635)"><rect width="6" height="6"/></g>
<g transform="translate(135,621) scale(4.635)"><rect width="6" height="6"/></g>
<g transform="translate(189,621) scale(4.635)"><rect width="6" height="6"/></g>
<g transform="translate(297,621) scale(4.635)"><rect width="6" height="6"/></g>
<g transform="translate(324,621) scale(4.635)"><rect width="6" height="6"/></g>
<g transform="translate(513,621) scale(4.635)"><rect width="6" height="6"/></g>
<g transform="translate(540,621) scale(4.635)"><rect width="6" height="6"/></g>
<g transform="translate(567,621) scale(4.635)"><rect width="6" height="6"/></g>
<g transform="translate(621,621) scale(4.635)"><rect width="6" height="6"/></g>
<g transform="translate(675,621) scale(4.635)"><rect width="6" height="6"/></g>
<g transform="translate(702,621) scale(4.635)"><rect width="6" height="6"/></g>
<g transform="translate(756,621) scale(4.635)"><rect width="6" height="6"/></g>
<g transform="translate(864,621) scale(4.635)"><rect width="6" height="6"/></g>
<g transform="translate(918,621) scale(4.635)"><rect width="6" height="6"/></g>
<g transform="translate(54,648) scale(4.635)"><rect width="6" height="6"/></g>
<g transform="translate(108,648) scale(4.635)"><rect width="6" height="6"/></g>
<g transform="translate(162,648) scale(4.635)"><rect width="6" height="6"/></g>
<g transform="translate(189,648) scale(4.635)"><rect width="6" height="6"/></g>
<g transform="translate(216,648) scale(4.635)"><rect width="6" height="6"/></g>
<g transform="translate(243,648) scale(4.635)"><rect width="6" height="6"/></g>
<g transform="translate(297,648) scale(4.635)"><rect width="6" height="6"/></g>
<g transform="translate(378,648) scale(4.635)"><rect width="6" height="6"/></g>
<g transform="translate(405,648) scale(4.635)"><rect width="6" height="6"/></g>
<g transform="translate(432,648) scale(4.635)"><rect width="6" height="6"/></g>
<g transform="translate(513,648) scale(4.635)"><rect width="6" height="6"/></g>
<g transform="translate(540,648) scale(4.635)"><rect width="6" height="6"/></g>
<g transform="translate(594,648) scale(4.635)"><rect width="6" height="6"/></g>
<g transform="translate(621,648) scale(4.635)"><rect width="6" height="6"/></g>
<g transform="translate(648,648) scale(4.635)"><rect width="6" height="6"/></g>
<g transform="translate(783,648) scale(4.635)"><rect width="6" height="6"/></g>
<g transform="translate(864,648) scale(4.635)"><rect width="6" height="6"/></g>
<g transform="translate(891,648) scale(4.635)"><rect width="6" height="6"/></g>
<g transform="translate(54,675) scale(4.635)"><rect width="6" height="6"/></g>
<g transform="translate(135,675) scale(4.635)"><rect width="6" height="6"/></g>
<g transform="translate(378,675) scale(4.635)"><rect width="6" height="6"/></g>
<g transform="translate(405,675) scale(4.635)"><rect width="6" height="6"/></g>
<g transform="translate(459,675) scale(4.635)"><rect width="6" height="6"/></g>
<g transform="translate(513,675) scale(4.635)"><rect width="6" height="6"/></g>
<g transform="translate(594,675) scale(4.635)"><rect width="6" height="6"/></g>
<g transform="translate(675,675) scale(4.635)"><rect width="6" height="6"/></g>
<g transform="translate(729,675) scale(4.635)"><rect width="6" height="6"/></g>
<g transform="translate(837,675) scale(4.635)"><rect width="6" height="6"/></g>
<g transform="translate(864,675) scale(4.635)"><rect width="6" height="6"/></g>
<g transform="translate(891,675) scale(4.635)"><rect width="6" height="6"/></g>
<g transform="translate(54,702) scale(4.635)"><rect width="6" height="6"/></g>
<g transform="translate(189,702) scale(4.635)"><rect width="6" height="6"/></g>
<g transform="translate(216,702) scale(4.635)"><rect width="6" height="6"/></g>
<g transform="translate(297,702) scale(4.635)"><rect width="6" height="6"/></g>
<g transform="translate(324,702) scale(4.635)"><rect width="6" height="6"/></g>
<g transform="translate(351,702) scale(4.635)"><rect width="6" height="6"/></g>
<g transform="translate(432,702) scale(4.635)"><rect width="6" height="6"/></g>
<g transform="translate(459,702) scale(4.635)"><rect width="6" height="6"/></g>
<g transform="translate(486,702) scale(4.635)"><rect width="6" height="6"/></g>
<g transform="translate(513,702) scale(4.635)"><rect width="6" height="6"/></g>
<g transform="translate(567,702) scale(4.635)"><rect width="6" height="6"/></g>
<g transform="translate(594,702) scale(4.635)"><rect width="6" height="6"/></g>
<g transform="translate(621,702) scale(4.635)"><rect width="6" height="6"/></g>
<g transform="translate(648,702) scale(4.635)"><rect width="6" height="6"/></g>
<g transform="translate(675,702) scale(4.635)"><rect width="6" height="6"/></g>
<g transform="translate(702,702) scale(4.635)"><rect width="6" height="6"/></g>
<g transform="translate(729,702) scale(4.635)"><rect width="6" height="6"/></g>
<g transform="translate(756,702) scale(4.635)"><rect width="6" height="6"/></g>
<g transform="translate(783,702) scale(4.635)"><rect width="6" height="6"/></g>
<g transform="translate(810,702) scale(4.635)"><rect width="6" height="6"/></g>
<g transform="translate(837,702) scale(4.635)"><rect width="6" height="6"/></g>
<g transform="translate(891,702) scale(4.635)"><rect width="6" height="6"/></g>
<g transform="translate(270,729) scale(4.635)"><rect width="6" height="6"/></g>
<g transform="translate(432,729) scale(4.635)"><rect width="6" height="6"/></g>
<g transform="translate(513,729) scale(4.635)"><rect width="6" height="6"/></g>
<g transform="translate(540,729) scale(4.635)"><rect width="6" height="6"/></g>
<g transform="translate(567,729) scale(4.635)"><rect width="6" height="6"/></g>
<g transform="translate(594,729) scale(4.635)"><rect width="6" height="6"/></g>
<g transform="translate(621,729) scale(4.635)"><rect width="6" height="6"/></g>
<g transform="translate(702,729) scale(4.635)"><rect width="6" height="6"/></g>
<g transform="translate(810,729) scale(4.635)"><rect width="6" height="6"/></g>
<g transform="translate(837,729) scale(4.635)"><rect width="6" height="6"/></g>
<g transform="translate(864,729) scale(4.635)"><rect width="6" height="6"/></g>
<g transform="translate(918,729) scale(4.635)"><rect width="6" height="6"/></g>
<g transform="translate(297,756) scale(4.635)"><rect width="6" height="6"/></g>
<g transform="translate(324,756) scale(4.635)"><rect width="6" height="6"/></g>
<g transform="translate(351,756) scale(4.635)"><rect width="6" height="6"/></g>
<g transform="translate(405,756) scale(4.635)"><rect width="6" height="6"/></g>
<g transform="translate(432,756) scale(4.635)"><rect width="6" height="6"/></g>
<g transform="translate(486,756) scale(4.635)"><rect width="6" height="6"/></g>
<g transform="translate(513,756) scale(4.635)"><rect width="6" height="6"/></g>
<g transform="translate(567,756) scale(4.635)"><rect width="6" height="6"/></g>
<g transform="translate(594,756) scale(4.635)"><rect width="6" height="6"/></g>
<g transform="translate(621,756) scale(4.635)"><rect width="6" height="6"/></g>
<g transform="translate(675,756) scale(4.635)"><rect width="6" height="6"/></g>
<g transform="translate(702,756) scale(4.635)"><rect width="6" height="6"/></g>
<g transform="translate(756,756) scale(4.635)"><rect width="6" height="6"/></g>
<g transform="translate(810,756) scale(4.635)"><rect width="6" height="6"/></g>
<g transform="translate(864,756) scale(4.635)"><rect width="6" height="6"/></g>
<g transform="translate(891,756) scale(4.635)"><rect width="6" height="6"/></g>
<g transform="translate(297,783) scale(4.635)"><rect width="6" height="6"/></g>
<g transform="translate(324,783) scale(4.635)"><rect width="6" height="6"/></g>
<g transform="translate(405,783) scale(4.635)"><rect width="6" height="6"/></g>
<g transform="translate(486,783) scale(4.635)"><rect width="6" height="6"/></g>
<g transform="translate(513,783) scale(4.635)"><rect width="6" height="6"/></g>
<g transform="translate(540,783) scale(4.635)"><rect width="6" height="6"/></g>
<g transform="translate(567,783) scale(4.635)"><rect width="6" height="6"/></g>
<g transform="translate(621,783) scale(4.635)"><rect width="6" height="6"/></g>
<g transform="translate(648,783) scale(4.635)"><rect width="6" height="6"/></g>
<g transform="translate(675,783) scale(4.635)"><rect width="6" height="6"/></g>
<g transform="translate(702,783) scale(4.635)"><rect width="6" height="6"/></g>
<g transform="translate(810,783) scale(4.635)"><rect width="6" height="6"/></g>
<g transform="translate(837,783) scale(4.635)"><rect width="6" height="6"/></g>
<g transform="translate(864,783) scale(4.635)"><rect width="6" height="6"/></g>
<g transform="translate(270,810) scale(4.635)"><rect width="6" height="6"/></g>
<g transform="translate(324,810) scale(4.635)"><rect width="6" height="6"/></g>
<g transform="translate(351,810) scale(4.635)"><rect width="6" height="6"/></g>
<g transform="translate(378,810) scale(4.635)"><rect width="6" height="6"/></g>
<g transform="translate(432,810) scale(4.635)"><rect width="6" height="6"/></g>
<g transform="translate(486,810) scale(4.635)"><rect width="6" height="6"/></g>
<g transform="translate(567,810) scale(4.635)"><rect width="6" height="6"/></g>
<g transform="translate(621,810) scale(4.635)"><rect width="6" height="6"/></g>
<g transform="translate(702,810) scale(4.635)"><rect width="6" height="6"/></g>
<g transform="translate(729,810) scale(4.635)"><rect width="6" height="6"/></g>
<g transform="translate(756,810) scale(4.635)"><rect width="6" height="6"/></g>
<g transform="translate(783,810) scale(4.635)"><rect width="6" height="6"/></g>
<g transform="translate(810,810) scale(4.635)"><rect width="6" height="6"/></g>
<g transform="translate(891,810) scale(4.635)"><rect width="6" height="6"/></g>
<g transform="translate(270,837) scale(4.635)"><rect width="6" height="6"/></g>
<g transform="translate(297,837) scale(4.635)"><rect width="6" height="6"/></g>
<g transform="translate(324,837) scale(4.635)"><rect width="6" height="6"/></g>
<g transform="translate(378,837) scale(4.635)"><rect width="6" height="6"/></g>
<g transform="translate(405,837) scale(4.635)"><rect width="6" height="6"/></g>
<g transform="translate(432,837) scale(4.635)"><rect width="6" height="6"/></g>
<g transform="translate(459,837) scale(4.635)"><rect width="6" height="6"/></g>
<g transform="translate(486,837) scale(4.635)"><rect width="6" height="6"/></g>
<g transform="translate(513,837) scale(4.635)"><rect width="6" height="6"/></g>
<g transform="translate(567,837) scale(4.635)"><rect width="6" height="6"/></g>
<g transform="translate(594,837) scale(4.635)"><rect width="6" height="6"/></g>
<g transform="translate(621,837) scale(4.635)"><rect width="6" height="6"/></g>
<g transform="translate(648,837) scale(4.635)"><rect width="6" height="6"/></g>
<g transform="translate(675,837) scale(4.635)"><rect width="6" height="6"/></g>
<g transform="translate(702,837) scale(4.635)"><rect width="6" height="6"/></g>
<g transform="translate(729,837) scale(4.635)"><rect width="6" height="6"/></g>
<g transform="translate(783,837) scale(4.635)"><rect width="6" height="6"/></g>
<g transform="translate(810,837) scale(4.635)"><rect width="6" height="6"/></g>
<g transform="translate(837,837) scale(4.635)"><rect width="6" height="6"/></g>
<g transform="translate(918,837) scale(4.635)"><rect width="6" height="6"/></g>
<g transform="translate(270,864) scale(4.635)"><rect width="6" height="6"/></g>
<g transform="translate(297,864) scale(4.635)"><rect width="6" height="6"/></g>
<g transform="translate(324,864) scale(4.635)"><rect width="6" height="6"/></g>
<g transform="translate(351,864) scale(4.635)"><rect width="6" height="6"/></g>
<g transform="translate(432,864) scale(4.635)"><rect width="6" height="6"/></g>
<g transform="translate(513,864) scale(4.635)"><rect width="6" height="6"/></g>
<g transform="translate(567,864) scale(4.635)"><rect width="6" height="6"/></g>
<g transform="translate(702,864) scale(4.635)"><rect width="6" height="6"/></g>
<g transform="translate(756,864) scale(4.635)"><rect width="6" height="6"/></g>
<g transform="translate(837,864) scale(4.635)"><rect width="6" height="6"/></g>
<g transform="translate(864,864) scale(4.635)"><rect width="6" height="6"/></g>
<g transform="translate(324,891) scale(4.635)"><rect width="6" height="6"/></g>
<g transform="translate(351,891) scale(4.635)"><rect width="6" height="6"/></g>
<g transform="translate(459,891) scale(4.635)"><rect width="6" height="6"/></g>
<g transform="translate(540,891) scale(4.635)"><rect width="6" height="6"/></g>
<g transform="translate(594,891) scale(4.635)"><rect width="6" height="6"/></g>
<g transform="translate(621,891) scale(4.635)"><rect width="6" height="6"/></g>
<g transform="translate(729,891) scale(4.635)"><rect width="6" height="6"/></g>
<g transform="translate(837,891) scale(4.635)"><rect width="6" height="6"/></g>
<g transform="translate(864,891) scale(4.635)"><rect width="6" height="6"/></g>
<g transform="translate(297,918) scale(4.635)"><rect width="6" height="6"/></g>
<g transform="translate(351,918) scale(4.635)"><rect width="6" height="6"/></g>
<g transform="translate(378,918) scale(4.635)"><rect width="6" height="6"/></g>
<g transform="translate(405,918) scale(4.635)"><rect width="6" height="6"/></g>
<g transform="translate(459,918) scale(4.635)"><rect width="6" height="6"/></g>
<g transform="translate(486,918) scale(4.635)"><rect width="6" height="6"/></g>
<g transform="translate(567,918) scale(4.635)"><rect width="6" height="6"/></g>
<g transform="translate(594,918) scale(4.635)"><rect width="6" height="6"/></g>
<g transform="translate(621,918) scale(4.635)"><rect width="6" height="6"/></g>
<g transform="translate(648,918) scale(4.635)"><rect width="6" height="6"/></g>
<g transform="translate(675,918) scale(4.635)"><rect width="6" height="6"/></g>
<g transform="translate(702,918) scale(4.635)"><rect width="6" height="6"/></g>
<g transform="translate(783,918) scale(4.635)"><rect width="6" height="6"/></g>
<g transform="translate(891,918) scale(4.635)"><rect width="6" height="6"/></g>
</g><g ><g transform="translate(54,54)"  fill="#672BB6"><g transform="scale(13.5)"><path d="M0,0v14h14V0H0z M12,12H2V2h10V12z"/></g></g>
<g transform="translate(756,54)"  fill="#672BB6"><g transform="scale(13.5)"><path d="M0,0v14h14V0H0z M12,12H2V2h10V12z"/></g></g>
<g transform="translate(54,756)"  fill="#672BB6"><g transform="scale(13.5)"><path d="M0,0v14h14V0H0z M12,12H2V2h10V12z"/></g></g>
<g transform="translate(108,108)"  fill="#672BB6"><g transform="scale(13.5)"><rect width="6" height="6"/></g></g>
<g transform="translate(810,108)"  fill="#672BB6"><g transform="scale(13.5)"><rect width="6" height="6"/></g></g>
<g transform="translate(108,810)"  fill="#672BB6"><g transform="scale(13.5)"><rect width="6" height="6"/></g></g></g>
</svg>