<svg width="18" height="20" viewBox="0 0 18 20" fill="none" xmlns="http://www.w3.org/2000/svg">
<path d="M5.77902 1.04845L5.51786 1.57242H2.03571C1.39369 1.57242 0.875 2.09639 0.875 2.74494C0.875 3.39349 1.39369 3.91746 2.03571 3.91746H15.9643C16.6063 3.91746 17.125 3.39349 17.125 2.74494C17.125 2.09639 16.6063 1.57242 15.9643 1.57242H12.4821L12.221 1.04845C12.0251 0.649063 11.6225 0.399902 11.1836 0.399902H6.81641C6.37751 0.399902 5.97489 0.649063 5.77902 1.04845ZM15.9643 5.08998H2.03571L2.80469 17.5114C2.86272 18.4384 3.62444 19.1602 4.54213 19.1602H13.4579C14.3756 19.1602 15.1373 18.4384 15.1953 17.5114L15.9643 5.08998Z" fill="#D32F2F"/>
</svg>
