<svg width="30" height="29" viewBox="0 0 30 29" fill="none" xmlns="http://www.w3.org/2000/svg">
<path d="M15 29C18.8456 29 22.5338 27.4723 25.253 24.753C27.9723 22.0338 29.5 18.3456 29.5 14.5C29.5 10.6544 27.9723 6.96623 25.253 4.24695C22.5338 1.52767 18.8456 0 15 0C11.1544 0 7.46623 1.52767 4.74695 4.24695C2.02767 6.96623 0.5 10.6544 0.5 14.5C0.5 18.3456 2.02767 22.0338 4.74695 24.753C7.46623 27.4723 11.1544 29 15 29ZM12.7344 19.0312H14.0938V15.4062H12.7344C11.9811 15.4062 11.375 14.8002 11.375 14.0469C11.375 13.2936 11.9811 12.6875 12.7344 12.6875H15.4531C16.2064 12.6875 16.8125 13.2936 16.8125 14.0469V19.0312H17.2656C18.0189 19.0312 18.625 19.6373 18.625 20.3906C18.625 21.1439 18.0189 21.75 17.2656 21.75H12.7344C11.9811 21.75 11.375 21.1439 11.375 20.3906C11.375 19.6373 11.9811 19.0312 12.7344 19.0312ZM15 7.25C15.4807 7.25 15.9417 7.44096 16.2816 7.78087C16.6215 8.12078 16.8125 8.58179 16.8125 9.0625C16.8125 9.54321 16.6215 10.0042 16.2816 10.3441C15.9417 10.684 15.4807 10.875 15 10.875C14.5193 10.875 14.0583 10.684 13.7184 10.3441C13.3785 10.0042 13.1875 9.54321 13.1875 9.0625C13.1875 8.58179 13.3785 8.12078 13.7184 7.78087C14.0583 7.44096 14.5193 7.25 15 7.25Z" fill="white"/>
</svg>
