<svg width="33" height="29" viewBox="0 0 33 29" fill="none" xmlns="http://www.w3.org/2000/svg">
<path d="M0.5 1.35938C0.5 0.606055 1.09444 0 1.83333 0H4.36111C5.58333 0 6.66667 0.725 7.17222 1.8125H30.0056C31.4667 1.8125 32.5333 3.22852 32.15 4.66719L29.8722 13.2936C29.4 15.0721 27.8167 16.3125 26.0111 16.3125H9.98333L10.2833 17.9268C10.4056 18.5668 10.9556 19.0312 11.5944 19.0312H27.6111C28.35 19.0312 28.9444 19.6373 28.9444 20.3906C28.9444 21.1439 28.35 21.75 27.6111 21.75H11.5944C9.67222 21.75 8.02222 20.3566 7.66667 18.4365L4.8 3.08691C4.76111 2.87168 4.57778 2.71875 4.36111 2.71875H1.83333C1.09444 2.71875 0.5 2.1127 0.5 1.35938ZM7.61111 26.2812C7.61111 25.9242 7.68009 25.5707 7.8141 25.2408C7.94811 24.911 8.14454 24.6113 8.39216 24.3588C8.63978 24.1063 8.93375 23.9061 9.25729 23.7695C9.58082 23.6328 9.92759 23.5625 10.2778 23.5625C10.628 23.5625 10.9747 23.6328 11.2983 23.7695C11.6218 23.9061 11.9158 24.1063 12.1634 24.3588C12.411 24.6113 12.6074 24.911 12.7415 25.2408C12.8755 25.5707 12.9444 25.9242 12.9444 26.2812C12.9444 26.6383 12.8755 26.9918 12.7415 27.3217C12.6074 27.6515 12.411 27.9512 12.1634 28.2037C11.9158 28.4562 11.6218 28.6564 11.2983 28.793C10.9747 28.9297 10.628 29 10.2778 29C9.92759 29 9.58082 28.9297 9.25729 28.793C8.93375 28.6564 8.63978 28.4562 8.39216 28.2037C8.14454 27.9512 7.94811 27.6515 7.8141 27.3217C7.68009 26.9918 7.61111 26.6383 7.61111 26.2812ZM26.2778 23.5625C26.985 23.5625 27.6633 23.8489 28.1634 24.3588C28.6635 24.8687 28.9444 25.5602 28.9444 26.2812C28.9444 27.0023 28.6635 27.6938 28.1634 28.2037C27.6633 28.7136 26.985 29 26.2778 29C25.5705 29 24.8923 28.7136 24.3922 28.2037C23.8921 27.6938 23.6111 27.0023 23.6111 26.2812C23.6111 25.5602 23.8921 24.8687 24.3922 24.3588C24.8923 23.8489 25.5705 23.5625 26.2778 23.5625Z" fill="white"/>
</svg>
