<svg width="16" height="14" viewBox="0 0 16 14" fill="none" xmlns="http://www.w3.org/2000/svg">
<path d="M12.4956 5.68667C12.4956 6.94156 12.048 8.10077 11.2941 9.04125L15.0968 12.5052C15.4723 12.8469 15.4723 13.4019 15.0968 13.7437C14.7214 14.0854 14.1116 14.0854 13.7361 13.7437L9.9334 10.2797C8.90011 10.9687 7.62652 11.3733 6.2478 11.3733C2.79649 11.3733 0 8.828 0 5.68667C0 2.54533 2.79649 0 6.2478 0C9.6991 0 12.4956 2.54533 12.4956 5.68667ZM6.2478 9.62359C6.81582 9.62359 7.37827 9.52176 7.90305 9.32391C8.42784 9.12606 8.90466 8.83607 9.30631 8.47049C9.70796 8.10491 10.0266 7.67091 10.2439 7.19326C10.4613 6.71561 10.5732 6.20367 10.5732 5.68667C10.5732 5.16966 10.4613 4.65772 10.2439 4.18007C10.0266 3.70242 9.70796 3.26842 9.30631 2.90284C8.90466 2.53726 8.42784 2.24727 7.90305 2.04942C7.37827 1.85158 6.81582 1.74974 6.2478 1.74974C5.67978 1.74974 5.11732 1.85158 4.59254 2.04942C4.06776 2.24727 3.59093 2.53726 3.18928 2.90284C2.78763 3.26842 2.46902 3.70242 2.25165 4.18007C2.03428 4.65772 1.9224 5.16966 1.9224 5.68667C1.9224 6.20367 2.03428 6.71561 2.25165 7.19326C2.46902 7.67091 2.78763 8.10491 3.18928 8.47049C3.59093 8.83607 4.06776 9.12606 4.59254 9.32391C5.11732 9.52176 5.67978 9.62359 6.2478 9.62359Z" fill="#672BB6"/>
</svg>
