<svg width="33" height="33" viewBox="0 0 33 33" fill="none" xmlns="http://www.w3.org/2000/svg">
<path d="M25.7168 24.7629C24.2924 22.2879 21.6176 20.625 18.5625 20.625H14.4375C11.3824 20.625 8.70762 22.2879 7.2832 24.7629C9.55195 27.2895 12.8391 28.875 16.5 28.875C20.1609 28.875 23.448 27.283 25.7168 24.7629ZM0 16.5C0 12.1239 1.73839 7.92709 4.83274 4.83274C7.92709 1.73839 12.1239 0 16.5 0C20.8761 0 25.0729 1.73839 28.1673 4.83274C31.2616 7.92709 33 12.1239 33 16.5C33 20.8761 31.2616 25.0729 28.1673 28.1673C25.0729 31.2616 20.8761 33 16.5 33C12.1239 33 7.92709 31.2616 4.83274 28.1673C1.73839 25.0729 0 20.8761 0 16.5ZM16.5 17.5312C17.7308 17.5312 18.9111 17.0423 19.7814 16.172C20.6517 15.3018 21.1406 14.1214 21.1406 12.8906C21.1406 11.6599 20.6517 10.4795 19.7814 9.60921C18.9111 8.73892 17.7308 8.25 16.5 8.25C15.2692 8.25 14.0889 8.73892 13.2186 9.60921C12.3483 10.4795 11.8594 11.6599 11.8594 12.8906C11.8594 14.1214 12.3483 15.3018 13.2186 16.172C14.0889 17.0423 15.2692 17.5312 16.5 17.5312Z" fill="white"/>
</svg>
