<svg width="40" height="30" viewBox="0 0 40 30" fill="none" xmlns="http://www.w3.org/2000/svg">
<path d="M4.44444 0C1.99306 0 0 2.24219 0 5V25C0 27.7578 1.99306 30 4.44444 30H35.5556C38.0069 30 40 27.7578 40 25V5C40 2.24219 38.0069 0 35.5556 0H4.44444ZM8.88889 25H4.44444V20C6.89583 20 8.88889 22.2422 8.88889 25ZM4.44444 10V5H8.88889C8.88889 7.75781 6.89583 10 4.44444 10ZM31.1111 25C31.1111 22.2422 33.1042 20 35.5556 20V25H31.1111ZM35.5556 10C33.1042 10 31.1111 7.75781 31.1111 5H35.5556V10ZM20 7.5C21.7681 7.5 23.4638 8.29018 24.714 9.6967C25.9643 11.1032 26.6667 13.0109 26.6667 15C26.6667 16.9891 25.9643 18.8968 24.714 20.3033C23.4638 21.7098 21.7681 22.5 20 22.5C18.2319 22.5 16.5362 21.7098 15.286 20.3033C14.0357 18.8968 13.3333 16.9891 13.3333 15C13.3333 13.0109 14.0357 11.1032 15.286 9.6967C16.5362 8.29018 18.2319 7.5 20 7.5Z" fill="white"/>
</svg>
