<svg width="40" height="40" viewBox="0 0 40 40" fill="none" xmlns="http://www.w3.org/2000/svg">
<path d="M18.9375 22.8516C19.3594 22.4297 20.0859 22.4297 20.5078 22.8516L26.5234 28.8672C27.6328 29.9766 29.1094 30.5859 30.6719 30.5859H31.8516L24.2656 38.1719C21.8984 40.4766 18.0547 40.4766 15.6875 38.1719L8.07031 30.5625H8.79688C10.3594 30.5625 11.8359 29.9531 12.9453 28.8438L18.9375 22.8516ZM20.5078 17.1016C20.0078 17.5312 19.3672 17.5391 18.9375 17.1016L12.9453 11.1094C11.8359 9.92969 10.3594 9.39062 8.79688 9.39062H8.07031L15.6797 1.78125C18.0547 -0.59375 21.8984 -0.59375 24.2656 1.78125L31.8594 9.36719H30.6719C29.1094 9.36719 27.6328 9.97656 26.5234 11.0859L20.5078 17.1016ZM8.79688 11.1484C9.875 11.1484 10.8672 11.5859 11.6953 12.3516L17.6875 18.3438C18.25 18.8359 18.9844 19.1875 19.7266 19.1875C20.4609 19.1875 21.1953 18.8359 21.7578 18.3438L27.7734 12.3281C28.5391 11.5703 29.5938 11.1328 30.6719 11.1328H33.6172L38.1719 15.6875C40.5391 18.0547 40.5391 21.8984 38.1719 24.2656L33.6172 28.8203H30.6719C29.5938 28.8203 28.5391 28.3828 27.7734 27.6172L21.7578 21.6016C20.6719 20.5156 18.7734 20.5156 17.6875 21.6094L11.6953 27.5938C10.8672 28.3594 9.875 28.7969 8.79688 28.7969H6.3125L1.78125 24.2656C-0.59375 21.8984 -0.59375 18.0547 1.78125 15.6875L6.3125 11.1484H8.79688Z" fill="#672BB6"/>
</svg>
