<svg width="17" height="19" viewBox="0 0 17 19" fill="none" xmlns="http://www.w3.org/2000/svg">
<path d="M5.28571 2C5.87835 2 6.35714 2.4748 6.35714 3.0625V4.125H10.6429V3.0625C10.6429 2.4748 11.1217 2 11.7143 2C12.3069 2 12.7857 2.4748 12.7857 3.0625V4.125H14.3929C15.2801 4.125 16 4.83887 16 5.71875V7.3125H1V5.71875C1 4.83887 1.71987 4.125 2.60714 4.125H4.21429V3.0625C4.21429 2.4748 4.69308 2 5.28571 2ZM1 8.375H16V17.4062C16 18.2861 15.2801 19 14.3929 19H2.60714C1.71987 19 1 18.2861 1 17.4062V8.375ZM3.14286 11.0312V12.0938C3.14286 12.3859 3.38393 12.625 3.67857 12.625H4.75C5.04464 12.625 5.28571 12.3859 5.28571 12.0938V11.0312C5.28571 10.7391 5.04464 10.5 4.75 10.5H3.67857C3.38393 10.5 3.14286 10.7391 3.14286 11.0312ZM7.42857 11.0312V12.0938C7.42857 12.3859 7.66964 12.625 7.96429 12.625H9.03572C9.33036 12.625 9.57143 12.3859 9.57143 12.0938V11.0312C9.57143 10.7391 9.33036 10.5 9.03572 10.5H7.96429C7.66964 10.5 7.42857 10.7391 7.42857 11.0312ZM12.25 10.5C11.9554 10.5 11.7143 10.7391 11.7143 11.0312V12.0938C11.7143 12.3859 11.9554 12.625 12.25 12.625H13.3214C13.6161 12.625 13.8571 12.3859 13.8571 12.0938V11.0312C13.8571 10.7391 13.6161 10.5 13.3214 10.5H12.25ZM3.14286 15.2812V16.3438C3.14286 16.6359 3.38393 16.875 3.67857 16.875H4.75C5.04464 16.875 5.28571 16.6359 5.28571 16.3438V15.2812C5.28571 14.9891 5.04464 14.75 4.75 14.75H3.67857C3.38393 14.75 3.14286 14.9891 3.14286 15.2812ZM7.96429 14.75C7.66964 14.75 7.42857 14.9891 7.42857 15.2812V16.3438C7.42857 16.6359 7.66964 16.875 7.96429 16.875H9.03572C9.33036 16.875 9.57143 16.6359 9.57143 16.3438V15.2812C9.57143 14.9891 9.33036 14.75 9.03572 14.75H7.96429ZM11.7143 15.2812V16.3438C11.7143 16.6359 11.9554 16.875 12.25 16.875H13.3214C13.6161 16.875 13.8571 16.6359 13.8571 16.3438V15.2812C13.8571 14.9891 13.6161 14.75 13.3214 14.75H12.25C11.9554 14.75 11.7143 14.9891 11.7143 15.2812Z" fill="#5B5B5B"/>
</svg>
