<svg width="34" height="31" viewBox="0 0 34 31" fill="none" xmlns="http://www.w3.org/2000/svg">
<path d="M33.4887 15.4707C33.4887 16.5254 32.6293 17.3516 31.6553 17.3516H29.822L29.8621 26.7383C29.8621 26.8965 29.8507 27.0547 29.8335 27.2129V28.1621C29.8335 29.457 28.8079 30.5059 27.5418 30.5059H26.6251C26.5621 30.5059 26.4991 30.5059 26.4361 30.5C26.3559 30.5059 26.2757 30.5059 26.1954 30.5059L24.3335 30.5H22.9585C21.6923 30.5 20.6668 29.4512 20.6668 28.1562V26.75V23C20.6668 21.9629 19.8475 21.125 18.8335 21.125H15.1668C14.1527 21.125 13.3335 21.9629 13.3335 23V26.75V28.1562C13.3335 29.4512 12.3079 30.5 11.0418 30.5H9.6668H7.83919C7.75326 30.5 7.66732 30.4941 7.58138 30.4883C7.51263 30.4941 7.44388 30.5 7.37513 30.5H6.45846C5.19232 30.5 4.1668 29.4512 4.1668 28.1562V21.5937C4.1668 21.541 4.1668 21.4824 4.17253 21.4297V17.3457H2.33919C1.30794 17.3457 0.505859 16.5254 0.505859 15.4648C0.505859 14.9375 0.677734 14.4687 1.07878 14.0586L15.7626 0.96875C16.1637 0.558594 16.622 0.5 17.023 0.5C17.4241 0.5 17.8824 0.617187 18.2262 0.910156L32.8585 14.0645C33.3168 14.4746 33.546 14.9434 33.4887 15.4707Z" fill="white"/>
</svg>
