<svg width="24" height="31" viewBox="0 0 24 31" fill="none" xmlns="http://www.w3.org/2000/svg">
<path d="M12 0.5C9.49635 0.5 7.36406 2.06445 6.57943 4.25H4.33333C2.21901 4.25 0.5 5.93164 0.5 8V26.75C0.5 28.8184 2.21901 30.5 4.33333 30.5H19.6667C21.781 30.5 23.5 28.8184 23.5 26.75V8C23.5 5.93164 21.781 4.25 19.6667 4.25H17.4206C16.6359 2.06445 14.5036 0.5 12 0.5ZM12 4.25C12.5083 4.25 12.9958 4.44754 13.3553 4.79917C13.7147 5.15081 13.9167 5.62772 13.9167 6.125C13.9167 6.62228 13.7147 7.09919 13.3553 7.45083C12.9958 7.80246 12.5083 8 12 8C11.4917 8 11.0042 7.80246 10.6447 7.45083C10.2853 7.09919 10.0833 6.62228 10.0833 6.125C10.0833 5.62772 10.2853 5.15081 10.6447 4.79917C11.0042 4.44754 11.4917 4.25 12 4.25ZM4.8125 16.4375C4.8125 16.0645 4.96395 15.7069 5.23353 15.4431C5.50312 15.1794 5.86875 15.0312 6.25 15.0312C6.63125 15.0312 6.99688 15.1794 7.26647 15.4431C7.53605 15.7069 7.6875 16.0645 7.6875 16.4375C7.6875 16.8105 7.53605 17.1681 7.26647 17.4319C6.99688 17.6956 6.63125 17.8438 6.25 17.8438C5.86875 17.8438 5.50312 17.6956 5.23353 17.4319C4.96395 17.1681 4.8125 16.8105 4.8125 16.4375ZM11.0417 15.5H18.7083C19.2354 15.5 19.6667 15.9219 19.6667 16.4375C19.6667 16.9531 19.2354 17.375 18.7083 17.375H11.0417C10.5146 17.375 10.0833 16.9531 10.0833 16.4375C10.0833 15.9219 10.5146 15.5 11.0417 15.5ZM4.8125 22.0625C4.8125 21.6895 4.96395 21.3319 5.23353 21.0681C5.50312 20.8044 5.86875 20.6562 6.25 20.6562C6.63125 20.6562 6.99688 20.8044 7.26647 21.0681C7.53605 21.3319 7.6875 21.6895 7.6875 22.0625C7.6875 22.4355 7.53605 22.7931 7.26647 23.0569C6.99688 23.3206 6.63125 23.4688 6.25 23.4688C5.86875 23.4688 5.50312 23.3206 5.23353 23.0569C4.96395 22.7931 4.8125 22.4355 4.8125 22.0625ZM10.0833 22.0625C10.0833 21.5469 10.5146 21.125 11.0417 21.125H18.7083C19.2354 21.125 19.6667 21.5469 19.6667 22.0625C19.6667 22.5781 19.2354 23 18.7083 23H11.0417C10.5146 23 10.0833 22.5781 10.0833 22.0625Z" fill="white"/>
</svg>
