<svg width="34" height="29" viewBox="0 0 34 29" fill="none" xmlns="http://www.w3.org/2000/svg">
<g clip-path="url(#clip0_454_815)">
<path d="M4.16667 1.8125C2.14427 1.8125 0.5 3.43809 0.5 5.4375V7.25H33.5V5.4375C33.5 3.43809 31.8557 1.8125 29.8333 1.8125H4.16667ZM33.5 12.6875H0.5V23.5625C0.5 25.5619 2.14427 27.1875 4.16667 27.1875H29.8333C31.8557 27.1875 33.5 25.5619 33.5 23.5625V12.6875ZM6.91667 19.9375H10.5833C11.0875 19.9375 11.5 20.3453 11.5 20.8438C11.5 21.3422 11.0875 21.75 10.5833 21.75H6.91667C6.4125 21.75 6 21.3422 6 20.8438C6 20.3453 6.4125 19.9375 6.91667 19.9375ZM13.3333 20.8438C13.3333 20.3453 13.7458 19.9375 14.25 19.9375H21.5833C22.0875 19.9375 22.5 20.3453 22.5 20.8438C22.5 21.3422 22.0875 21.75 21.5833 21.75H14.25C13.7458 21.75 13.3333 21.3422 13.3333 20.8438Z" fill="white"/>
</g>
<defs>
<clipPath id="clip0_454_815">
<rect width="33" height="29" fill="white" transform="translate(0.5)"/>
</clipPath>
</defs>
</svg>
