<svg width="11" height="13" viewBox="0 0 11 13" fill="none" xmlns="http://www.w3.org/2000/svg">
<g clip-path="url(#clip0_838_466)">
<path d="M10.7881 2.14551C11.1118 1.8002 11.0602 1.28731 10.6706 1.0004C10.281 0.713483 9.70238 0.759186 9.37868 1.1045L5.50004 5.23048L1.62139 1.1045C1.29769 0.759186 0.719046 0.713483 0.329463 1.0004C-0.0601205 1.28731 -0.111683 1.8002 0.212015 2.14551L4.3055 6.50001L0.212015 10.8545C-0.111683 11.1998 -0.0601205 11.7127 0.329463 11.9996C0.719046 12.2865 1.29769 12.2408 1.62139 11.8955L5.50004 7.76954L9.37868 11.8955C9.70238 12.2408 10.281 12.2865 10.6706 11.9996C11.0602 11.7127 11.1118 11.1998 10.7881 10.8545L6.69457 6.50001L10.7881 2.14551Z" fill="white"/>
</g>
<defs>
<clipPath id="clip0_838_466">
<rect width="11" height="13" fill="white"/>
</clipPath>
</defs>
</svg>
