<svg width="43" height="39" viewBox="0 0 43 39" fill="none" xmlns="http://www.w3.org/2000/svg">
<path d="M21.4984 0C22.6911 0 23.7914 0.652902 24.3961 1.72366L42.538 33.7594C43.1512 34.8388 43.1512 36.1708 42.5548 37.2502C41.9585 38.3297 40.8414 39 39.6404 39H3.35652C2.15545 39 1.03838 38.3297 0.442049 37.2502C-0.154283 36.1708 -0.145884 34.8301 0.458847 33.7594L18.6008 1.72366C19.2055 0.652902 20.3058 0 21.4984 0ZM21.4984 11.1429C20.3814 11.1429 19.4827 12.0743 19.4827 13.2321V22.9821C19.4827 24.14 20.3814 25.0714 21.4984 25.0714C22.6155 25.0714 23.5142 24.14 23.5142 22.9821V13.2321C23.5142 12.0743 22.6155 11.1429 21.4984 11.1429ZM24.1861 30.6429C24.1861 29.904 23.903 29.1955 23.3989 28.6731C22.8949 28.1506 22.2113 27.8571 21.4984 27.8571C20.7856 27.8571 20.102 28.1506 19.598 28.6731C19.0939 29.1955 18.8107 29.904 18.8107 30.6429C18.8107 31.3817 19.0939 32.0902 19.598 32.6127C20.102 33.1351 20.7856 33.4286 21.4984 33.4286C22.2113 33.4286 22.8949 33.1351 23.3989 32.6127C23.903 32.0902 24.1861 31.3817 24.1861 30.6429Z" fill="#F19000"/>
</svg>
