<svg width="29" height="27" viewBox="0 0 29 27" fill="none" xmlns="http://www.w3.org/2000/svg">
<g clip-path="url(#clip0_454_744)">
<path d="M25.1552 3.61266L25.8213 4.2221C26.3388 4.69554 26.3388 5.46112 25.8213 5.92953L24.2194 7.40024L21.6817 5.07833L23.2836 3.61266C23.801 3.13921 24.6378 3.13921 25.1497 3.61266H25.1552ZM12.428 13.55L19.8155 6.78576L22.3533 9.10767L14.9603 15.8669C14.8006 16.0129 14.6025 16.1187 14.3878 16.1741L11.1674 17.0152L12.0867 14.0688C12.1473 13.8724 12.2629 13.691 12.4225 13.545L12.428 13.55ZM21.4174 1.90523L10.5564 11.8375C10.0775 12.2757 9.73068 12.8147 9.54902 13.4039L7.97463 18.4406C7.84252 18.8637 7.96913 19.317 8.31043 19.6293C8.65173 19.9415 9.14716 20.0574 9.60957 19.9365L15.1144 18.496C15.764 18.3248 16.353 18.0075 16.8264 17.5743L27.6874 7.642C29.2343 6.22669 29.2343 3.92997 27.6874 2.51467L27.0214 1.90523C25.4745 0.489924 22.9643 0.489924 21.4174 1.90523ZM5.72316 3.86953C3.04781 3.86953 0.878906 5.85398 0.878906 8.3018V22.0015C0.878906 24.4494 3.04781 26.4338 5.72316 26.4338H20.6963C23.3716 26.4338 25.5406 24.4494 25.5406 22.0015V16.3605C25.5406 15.6906 24.9515 15.1517 24.2194 15.1517C23.4872 15.1517 22.8982 15.6906 22.8982 16.3605V22.0015C22.8982 23.1147 21.9129 24.0162 20.6963 24.0162H5.72316C4.50659 24.0162 3.52123 23.1147 3.52123 22.0015V8.3018C3.52123 7.1887 4.50659 6.28713 5.72316 6.28713H11.8886C12.6207 6.28713 13.2097 5.74821 13.2097 5.07833C13.2097 4.40845 12.6207 3.86953 11.8886 3.86953H5.72316Z" fill="#672BB6"/>
</g>
<defs>
<clipPath id="clip0_454_744">
<rect width="29" height="27" fill="white"/>
</clipPath>
</defs>
</svg>
