<svg width="65" height="65" viewBox="0 0 65 65" fill="none" xmlns="http://www.w3.org/2000/svg">
<path d="M50.6543 48.7754C47.8486 43.9004 42.5801 40.625 36.5625 40.625H28.4375C22.4199 40.625 17.1514 43.9004 14.3457 48.7754C18.8145 53.752 25.2891 56.875 32.5 56.875C39.7109 56.875 46.1855 53.7393 50.6543 48.7754ZM0 32.5C0 23.8805 3.4241 15.614 9.51903 9.51903C15.614 3.4241 23.8805 0 32.5 0C41.1195 0 49.386 3.4241 55.481 9.51903C61.5759 15.614 65 23.8805 65 32.5C65 41.1195 61.5759 49.386 55.481 55.481C49.386 61.5759 41.1195 65 32.5 65C23.8805 65 15.614 61.5759 9.51903 55.481C3.4241 49.386 0 41.1195 0 32.5ZM32.5 34.5312C34.9242 34.5312 37.2492 33.5682 38.9634 31.854C40.6776 30.1398 41.6406 27.8149 41.6406 25.3906C41.6406 22.9664 40.6776 20.6414 38.9634 18.9272C37.2492 17.213 34.9242 16.25 32.5 16.25C30.0758 16.25 27.7508 17.213 26.0366 18.9272C24.3224 20.6414 23.3594 22.9664 23.3594 25.3906C23.3594 27.8149 24.3224 30.1398 26.0366 31.854C27.7508 33.5682 30.0758 34.5312 32.5 34.5312Z" fill="#A662FF"/>
</svg>
