<svg width="17" height="23" viewBox="0 0 17 23" fill="none" xmlns="http://www.w3.org/2000/svg">
<path d="M9.54922 22.425C11.8203 19.541 17 12.5512 17 8.625C17 3.86328 13.1927 0 8.5 0C3.80729 0 0 3.86328 0 8.625C0 12.5512 5.17969 19.541 7.45078 22.425C7.99531 23.1123 9.00469 23.1123 9.54922 22.425ZM8.5 5.75C9.25145 5.75 9.97212 6.0529 10.5035 6.59207C11.0348 7.13124 11.3333 7.8625 11.3333 8.625C11.3333 9.3875 11.0348 10.1188 10.5035 10.6579C9.97212 11.1971 9.25145 11.5 8.5 11.5C7.74855 11.5 7.02788 11.1971 6.49653 10.6579C5.96518 10.1188 5.66667 9.3875 5.66667 8.625C5.66667 7.8625 5.96518 7.13124 6.49653 6.59207C7.02788 6.0529 7.74855 5.75 8.5 5.75Z" fill="#672BB6"/>
</svg>
